<?xml version="1.0" encoding="UTF-8" standalone="no"?>
<!-- Created with Inkscape (http://www.inkscape.org/) -->

<svg
   width="210mm"
   height="297mm"
   viewBox="0 0 210 297"
   version="1.1"
   id="svg25474"
   inkscape:version="1.1.2 (b8e25be8, 2022-02-05)"
   sodipodi:docname="chargerOrangeButBest.svg"
   inkscape:export-filename="/Users/samclarkboot/Documents/MINOR Web Development/Meesterproef/hoe-fossielvrij-is-deze-laadpaal/public/images/chargerOrangeButBest.png"
   inkscape:export-xdpi="96"
   inkscape:export-ydpi="96"
   xmlns:inkscape="http://www.inkscape.org/namespaces/inkscape"
   xmlns:sodipodi="http://sodipodi.sourceforge.net/DTD/sodipodi-0.dtd"
   xmlns="http://www.w3.org/2000/svg"
   xmlns:svg="http://www.w3.org/2000/svg">
  <sodipodi:namedview
     id="namedview25476"
     pagecolor="#505050"
     bordercolor="#eeeeee"
     borderopacity="1"
     inkscape:pageshadow="0"
     inkscape:pageopacity="0"
     inkscape:pagecheckerboard="0"
     inkscape:document-units="mm"
     showgrid="false"
     inkscape:zoom="0.49288835"
     inkscape:cx="-134.91899"
     inkscape:cy="552.86354"
     inkscape:window-width="1404"
     inkscape:window-height="855"
     inkscape:window-x="0"
     inkscape:window-y="23"
     inkscape:window-maximized="0"
     inkscape:current-layer="layer1" />
  <defs
     id="defs25471" />
  <g
     inkscape:label="Laag 1"
     inkscape:groupmode="layer"
     id="layer1">
    <rect
       style="fill:#30c229;fill-opacity:1;fill-rule:evenodd;stroke-width:0;stroke-miterlimit:4;stroke-dasharray:none"
       id="rect9273-2"
       width="77.922493"
       height="151.99687"
       x="34.994164"
       y="71.356033" />
    <g
       id="g13559"
       transform="translate(-5.2540427,301.28295)">
      <path
         fill="#000"
         d="m 182.8457,-201.02944 v -19.93962 c -0.0699,-3.59345 -3.00702,-6.4717 -6.60251,-6.4707 -3.71874,0.0499 -6.6844,3.12429 -6.62237,6.84551 0.001,0.14967 0.01,0.29946 0.0197,0.39927 v 32.35251 c 0,7.2932 5.9119,13.20542 13.20506,13.20542 v 72.62808 c 0,3.648359 -2.95661,6.602464 -6.60251,6.602464 -3.64585,0 -6.60255,-2.954618 -6.60255,-6.602464 v -26.41034 c 0,-10.93906 -8.86854,-19.80788 -19.80764,-19.80788 h -19.80761 v -79.23055 c 0,-7.2932 -5.9119,-13.20493 -13.20506,-13.20493 H 37.589734 c -7.293201,0 -13.205124,5.91173 -13.205124,13.20493 v 145.256165 c 0,7.293216 5.911923,13.204932 13.205124,13.204932 h 79.230536 c 7.29316,0 13.20509,-5.911716 13.20509,-13.204932 V -135.02177 H 149.833 c 3.64585,0 6.60255,2.95462 6.60255,6.60246 v 26.41034 c 0,10.939066 8.86854,19.807395 19.80764,19.807395 10.93911,0 19.80764,-8.868329 19.80764,-19.807395 v -85.8335 c 0,-7.29321 -5.91192,-13.20492 -13.20513,-13.20492 z m -76.58422,44.89067 -34.341142,45.78753 -0.21461,-0.0998 c -0.613878,1.03813 -1.541189,1.85162 -2.833829,1.85162 -1.948946,0 -3.528566,-1.57711 -3.528566,-3.52856 0,-0.34937 0.284482,-0.6089 0.39428,-0.94826 l -0.234572,-0.0998 10.2551,-30.69504 c 0.713197,-2.13611 -0.876894,-4.34208 -3.128298,-4.34208 H 50.789917 c -2.717545,0 -4.267719,-3.10433 -2.638189,-5.27538 l 34.341138,-45.78702 0.21461,0.0998 c 0.61388,-1.03813 1.54119,-1.85165 2.833826,-1.85165 1.948951,0 3.528568,1.57714 3.528568,3.5286 0,0.34935 -0.284487,0.61387 -0.394269,0.94825 l 0.234571,0.0998 -10.252418,30.69406 c -0.714198,2.13611 0.875408,4.34207 3.126802,4.34207 h 21.839894 c 2.71754,0 4.26771,3.10434 2.63817,5.27539 z"
         id="path828-7-6"
         style="fill:#ff7f2a;fill-opacity:1;stroke:#30c229;stroke-width:5;stroke-miterlimit:4;stroke-dasharray:none;stroke-opacity:1" />
      <rect
         style="fill:#30c229;fill-opacity:1;fill-rule:evenodd;stroke-width:0.264583"
         id="rect7564-9-5"
         width="5.5838108"
         height="2.5801058"
         x="180.34868"
         y="-201.09106" />
    </g>
  </g>
</svg>
